<svg width="465" height="432" viewBox="0 0 465 432" fill="none" xmlns="http://www.w3.org/2000/svg">
<path d="M457.264 7.61044C450.78 12.9908 443.681 17.58 436.107 21.2785L-2 235.287V431.428C2.89092 426.176 5.46334 424.211 5.46334 424.211C11.9478 418.83 19.0505 414.241 26.6205 410.543L465 196.402V0.172852L457.268 7.61412L457.264 7.61044Z" fill="#F6BE00"/>
<path d="M113.001 294.902L116.91 292.992C116.122 310.793 109.836 320.578 101.751 324.534C92.0134 329.296 79.3059 325.752 79.3059 293.912C79.3059 264.368 88.7639 251.413 101.273 245.308C104.945 243.516 111.504 242.419 115.644 244.432V265.497L111.967 267.29C111.419 252.352 106.086 249.341 102.454 250.762C96.8676 252.944 92.1165 263.322 92.1165 291.192C92.1165 301.103 92.7016 307.646 94.0633 311.867C95.7525 317.097 99.2302 319.18 103.448 317.122C107.687 315.054 112.085 306.767 113.001 294.905V294.902ZM261.381 203.049C261.378 203.384 261.322 205.765 261.322 206.865L235.149 219.646C234.663 243.637 239.227 250.825 246.823 247.119C251.555 244.808 255.854 235.335 256.678 224.784L260.586 222.874C259.902 238.246 254.639 249.864 244.776 254.667C232.356 260.713 222.615 250.254 222.615 226.469C222.615 198.07 230.534 182.193 242.627 176.294C247.621 173.858 251.419 174.141 254.293 176.055C259.081 179.242 261.617 187.173 261.381 203.053V203.049ZM243.547 181.605C239.127 183.765 235.845 191.972 235.234 214.557C240.382 212.043 247.349 208.635 250.838 206.931C251.379 185.48 248.788 179.043 243.547 181.608V181.605ZM397.499 136.49C397.495 136.825 397.44 139.206 397.44 140.306L371.267 153.087C370.781 177.078 375.345 184.265 382.94 180.559C387.673 178.248 391.971 168.776 392.796 158.225L396.704 156.315C396.02 171.687 390.757 183.305 380.894 188.107C368.474 194.154 358.732 183.695 358.732 159.91C358.732 131.51 366.652 115.634 378.745 109.735C383.739 107.299 387.537 107.582 390.411 109.496C395.199 112.683 397.735 120.614 397.499 136.497V136.49ZM379.665 115.045C375.245 117.206 371.962 125.412 371.352 147.998C376.5 145.484 383.467 142.076 386.955 140.372C387.496 118.921 384.902 112.484 379.665 115.049V115.045ZM308.668 188.317C308.668 214.196 302.507 227.514 291.846 231.585C287.164 233.373 282.126 231.732 279.337 226.046V253.817L262.787 261.887V258.656C266.224 255.881 267.259 251.756 267.259 240.156V184.173C267.259 172.091 266.519 170.549 262.014 171.289V168.058L278.59 159.965V169.151C278.623 169.085 278.652 169.019 278.667 168.96C281.114 160.124 284.967 155.557 290.039 153.083C296.788 149.79 308.668 152.936 308.668 188.317ZM295.857 190.135C295.857 168.437 292.519 161.673 288.114 162.299C283.952 162.887 279.355 172.798 279.355 197.175C279.355 219.834 282.568 226.786 287.153 226.58C291.065 226.403 295.857 219.878 295.857 190.139V190.135ZM354.96 165.717C354.96 191.596 348.8 204.915 338.138 208.985C333.457 210.774 328.419 209.132 325.629 203.446V231.217L309.08 239.291V236.06C312.517 233.285 313.551 229.16 313.551 217.56V161.577C313.551 147.836 311.748 148.126 308.307 148.693V145.462L324.882 137.369V146.555C324.915 146.489 324.945 146.422 324.96 146.364C327.407 137.527 331.26 132.96 336.331 130.487C343.081 127.194 354.96 130.34 354.96 165.721V165.717ZM342.15 167.535C342.15 145.837 338.812 139.073 334.407 139.699C330.244 140.288 325.648 150.198 325.648 174.576C325.648 197.234 328.861 204.186 333.442 203.98C337.354 203.803 342.15 197.278 342.15 167.539V167.535ZM224.418 189.708V186.477L207.379 194.791V198.022C211.313 197.024 213.856 198.07 212.2 209.478C210.54 220.912 207.78 240.447 206.33 250.526L198.046 199.354L191.76 202.412L184.286 261.273C183.09 254.464 180.076 237.098 177.919 224.364C176.374 215.238 178.019 213.063 180.93 210.943V207.712L161.377 217.254V220.485C163.865 219.897 164.965 220.824 166.419 229.082C171.972 260.643 176.55 286.669 176.55 286.669L186.571 281.782L192.596 237.41L198.657 275.883L208.678 270.995C208.678 270.995 216.255 220.997 217.676 210.428C219.788 194.765 220.881 192.156 224.411 189.708H224.418ZM57.6151 276.88C49.1912 270.661 41.4555 264.971 41.4555 255.443C41.4555 249.79 44.0133 245.245 48.5214 243.479C53.8871 241.378 64.1142 241.985 64.4234 262.94L68.3795 261.041V236.678C63.8677 234.51 54.5238 234.282 47.3879 237.69C35.7587 243.243 29.5171 253.702 29.5171 267.267C29.5171 280.833 36.2224 288.535 47.8995 297.165C58.3585 304.893 64.1106 312.121 64.1106 323.614C64.1106 333.087 60.2685 339.354 54.5017 342.048C46.398 345.835 34.5516 342.011 34.5516 326.603C34.5516 317.259 37.7128 310.366 44.2304 306.84L44.3481 302.615C31.6553 306.119 24.7256 316.673 24.7256 328.027C24.7256 347.37 42.3719 353.475 57.9021 345.953C69.432 340.366 76.0526 327.732 76.0526 312.732C76.0526 295.748 71.2206 286.931 57.6151 276.884V276.88ZM160.939 274.208V243.284C160.939 232.711 159.471 227.272 156.928 224.449C153.752 220.927 149.615 221.711 147.462 222.76C142.056 225.387 137.677 230.569 134.836 239.453V208.411L117.038 217.092V220.323C120.987 219.672 122.68 221.626 122.68 232.251V293.868C122.68 305.467 121.65 309.148 118.209 311.926V315.157L139.285 304.871V301.64C135.454 302.409 134.839 299.414 134.839 287.81V267.705C134.839 243.759 140.617 233.697 144.003 232.998C147.749 232.229 148.754 237.62 148.754 247.925V300.245C148.754 300.245 160.648 294.438 166.478 291.593V288.362C162.249 289.179 160.935 286.069 160.935 274.208H160.939ZM423.518 118.921C416.912 114.184 411.899 110.96 411.899 104.318C411.899 99.4931 414.487 96.3098 418.321 95.3419C424.6 93.7631 428.28 100.34 427.996 110.331L431.713 108.513V90.3958C427.687 89.2181 422.403 89.4537 418.553 90.6644C407.546 94.1275 402.452 102.202 402.452 112.112C402.452 119.723 405.548 125.891 414.748 132.302C423.312 138.267 427.654 143.511 427.654 151.162C427.654 157.732 424.971 161.997 420.857 163.715C415.27 166.049 407.307 163.778 407.307 153.359C407.307 147.39 409.264 142.716 412.871 140.394V136.582C406.1 138.926 400.248 145.661 400.248 154.776C400.248 169.725 415.097 171.407 423.783 167.16C432.317 162.983 438.271 154.644 438.271 142.878C438.271 132.677 433.244 125.895 423.518 118.921ZM435.239 86.6862C434.043 86.6862 432.924 86.2961 432.004 85.5417C430.661 84.4376 429.892 82.6564 429.892 80.6471C429.892 76.8013 432.692 73.1175 436.13 72.433C437.738 72.1128 439.287 72.4808 440.487 73.4634C441.83 74.5675 442.599 76.3487 442.599 78.358C442.599 82.2038 439.799 85.8913 436.358 86.5721C435.979 86.6457 435.603 86.6825 435.235 86.6825L435.239 86.6862ZM437.248 73.4965C436.958 73.4965 436.659 73.526 436.361 73.5849C433.443 74.1626 431.069 77.3313 431.069 80.6471C431.069 82.3031 431.684 83.7531 432.751 84.6327C433.675 85.3908 434.875 85.6705 436.133 85.4202C439.052 84.8424 441.429 81.6738 441.429 78.358C441.429 76.702 440.814 75.252 439.747 74.3724C439.044 73.7946 438.179 73.4965 437.252 73.4965H437.248ZM438.558 80.3821V79.981C438.558 78.9689 438.025 78.7113 437.16 78.7739C438.205 78.3396 438.632 77.541 438.632 76.7461C438.632 75.9034 438.132 74.5711 436.041 75.5905L433.66 76.7461V77.1656C434.175 77.0037 434.297 77.2797 434.297 78.0489V82.1964C434.297 82.7632 434.308 83.3814 433.793 83.7053V84.1322L436.177 82.9692V82.5497C435.861 82.6344 435.673 82.6307 435.673 81.7327V79.543C436.464 79.1677 437.248 79.3259 437.248 80.6287V82.4503L439.191 81.5119V81.0924C438.857 81.1954 438.555 81.1292 438.555 80.3821H438.558ZM435.673 78.9505V76.4407C435.806 76.3744 435.894 76.3045 436.067 76.253C436.869 76.0027 437.245 76.3707 437.245 77.1804C437.245 78.1961 436.593 78.6708 435.673 78.9505Z" fill="black"/>
</svg>
